<?xml version="1.0" encoding="UTF-8" standalone="no"?>
<svg width="800" height="600" xmlns="http://www.w3.org/2000/svg">
  <!-- Arduino Mega with RAMPS 1.4 -->
  <rect x="300" y="200" width="200" height="120" fill="#4CAF50" stroke="black" stroke-width="2" />
  <text x="340" y="250" font-family="Arial" font-size="14" fill="white">Arduino Mega</text>
  <text x="340" y="270" font-family="Arial" font-size="14" fill="white">with RAMPS 1.4</text>
  
  <!-- X-Axis Stepper -->
  <rect x="600" y="200" width="100" height="80" fill="#9C27B0" stroke="black" stroke-width="2" />
  <text x="615" y="240" font-family="Arial" font-size="12" fill="white">X-Axis</text>
  <text x="615" y="260" font-family="Arial" font-size="12" fill="white">Stepper</text>
  <line x1="500" y1="220" x2="600" y2="220" stroke="black" stroke-width="2" />
  <text x="520" y="215" font-family="Arial" font-size="10">Pin 54 (STEP)</text>
  <line x1="500" y1="240" x2="600" y2="240" stroke="black" stroke-width="2" />
  <text x="520" y="235" font-family="Arial" font-size="10">Pin 55 (DIR)</text>
  <line x1="500" y1="260" x2="600" y2="260" stroke="black" stroke-width="2" />
  <text x="520" y="255" font-family="Arial" font-size="10">Pin 38 (ENABLE)</text>
  
  <!-- Z-Axis Stepper (Paper Roller) -->
  <rect x="150" y="150" width="100" height="80" fill="#2196F3" stroke="black" stroke-width="2" />
  <text x="165" y="190" font-family="Arial" font-size="12" fill="white">Z-Axis</text>
  <text x="165" y="210" font-family="Arial" font-size="12" fill="white">Paper Roller</text>
  <line x1="300" y1="170" x2="250" y2="170" stroke="black" stroke-width="2" />
  <text x="260" y="165" font-family="Arial" font-size="10">Pin 46 (STEP)</text>
  <line x1="300" y1="190" x2="250" y2="190" stroke="black" stroke-width="2" />
  <text x="260" y="185" font-family="Arial" font-size="10">Pin 48 (DIR)</text>
  <line x1="300" y1="210" x2="250" y2="210" stroke="black" stroke-width="2" />
  <text x="260" y="205" font-family="Arial" font-size="10">Pin 62 (ENABLE)</text>
  
  <!-- Solenoid -->
  <rect x="400" y="100" width="100" height="60" fill="#F44336" stroke="black" stroke-width="2" />
  <text x="420" y="135" font-family="Arial" font-size="12" fill="white">Solenoid</text>
  <line x1="400" y1="130" x2="350" y2="200" stroke="black" stroke-width="2" />
  <text x="360" y="160" font-family="Arial" font-size="10">Pin 10</text>
  
  <!-- Bluetooth Module -->
  <rect x="150" y="300" width="100" height="60" fill="#FF9800" stroke="black" stroke-width="2" />
  <text x="170" y="335" font-family="Arial" font-size="12" fill="white">HC-05</text>
  <text x="170" y="350" font-family="Arial" font-size="12" fill="white">Bluetooth</text>
  <line x1="300" y1="320" x2="250" y2="320" stroke="black" stroke-width="2" />
  <text x="260" y="315" font-family="Arial" font-size="10">Pin 1 (RX)</text>
  <line x1="300" y1="340" x2="250" y2="340" stroke="black" stroke-width="2" />
  <text x="260" y="335" font-family="Arial" font-size="10">Pin 2 (TX)</text>
  
  <!-- Endstops -->
  <rect x="600" y="100" width="80" height="40" fill="#795548" stroke="black" stroke-width="2" />
  <text x="610" y="125" font-family="Arial" font-size="10" fill="white">X Endstops</text>
  <line x1="600" y1="120" x2="500" y2="200" stroke="black" stroke-width="2" />
  <text x="540" y="150" font-family="Arial" font-size="10">Pin 2,3</text>
  
  <rect x="100" y="80" width="80" height="40" fill="#795548" stroke="black" stroke-width="2" />
  <text x="110" y="105" font-family="Arial" font-size="10" fill="white">Z Endstops</text>
  <line x1="150" y1="120" x2="300" y2="200" stroke="black" stroke-width="2" />
  <text x="200" y="150" font-family="Arial" font-size="10">Pin 18,19</text>
  
  <!-- Braille Mechanism -->
  <rect x="400" y="400" width="150" height="100" fill="#607D8B" stroke="black" stroke-width="2" />
  <text x="420" y="450" font-family="Arial" font-size="14" fill="white">Braille Mechanism</text>
  <line x1="400" y1="440" x2="350" y2="320" stroke="black" stroke-width="2" stroke-dasharray="5,5" />
  <line x1="550" y1="440" x2="600" y2="280" stroke="black" stroke-width="2" stroke-dasharray="5,5" />
  <line x1="475" y1="400" x2="475" y2="320" stroke="black" stroke-width="2" stroke-dasharray="5,5" />

  <!-- Legend -->
  <rect x="600" y="400" width="150" height="150" fill="white" stroke="black" stroke-width="1" />
  <text x="610" y="420" font-family="Arial" font-size="12" font-weight="bold">Legend</text>
  
  <rect x="610" y="430" width="20" height="10" fill="#4CAF50" />
  <text x="640" y="440" font-family="Arial" font-size="10">Arduino + RAMPS</text>
  
  <rect x="610" y="450" width="20" height="10" fill="#9C27B0" />
  <text x="640" y="460" font-family="Arial" font-size="10">X-Axis Stepper</text>
  
  <rect x="610" y="470" width="20" height="10" fill="#2196F3" />
  <text x="640" y="480" font-family="Arial" font-size="10">Paper Roller</text>
  
  <rect x="610" y="490" width="20" height="10" fill="#F44336" />
  <text x="640" y="500" font-family="Arial" font-size="10">Solenoid</text>
  
  <rect x="610" y="510" width="20" height="10" fill="#FF9800" />
  <text x="640" y="520" font-family="Arial" font-size="10">Bluetooth Module</text>
  
  <rect x="610" y="530" width="20" height="10" fill="#795548" />
  <text x="640" y="540" font-family="Arial" font-size="10">Endstops</text>
</svg>
